<svg xmlns="http://www.w3.org/2000/svg" viewBox="399 100 641 462" width="200" height="150" preserveAspectRatio="xMidYMid meet">
  <!-- โลโก้หลัก -->
  <g clip-path="url(#b64406570c)">
    <path fill="#ffffff" d="M 633.746094 195.921875 L 633.746094 114.425781 L 630.949219 114.425781 L 630.949219 196.851562 L 623.535156 199.332031 L 627.941406 212.609375 L 630.949219 211.59375 L 630.949219 287.179688 L 543.171875 287.179688 L 543.171875 289.976562 L 630.949219 289.976562 L 630.949219 341.628906 L 460.574219 284.84375 L 460.574219 206.886719 L 457.773438 206.886719 L 457.773438 283.90625 L 404.058594 266 L 399.652344 279.269531 L 450.5 296.222656 L 450.5 554.628906 L 406.300781 554.628906 L 406.300781 561.621094 L 1040.3125 561.621094 L 1040.3125 554.628906 L 989.046875 554.628906 L 989.046875 284.191406 L 901.621094 284.191406 L 901.621094 121.371094 L 924.5625 113.738281 L 920.085938 100.472656 Z M 464.488281 554.628906 L 630.949219 554.628906 L 630.949219 356.371094 L 464.488281 300.886719 Z M 633.746094 554.628906 L 712.78125 554.628906 L 712.78125 383.648438 L 633.746094 357.308594 Z M 975.058594 554.628906 L 975.058594 298.179688 C 975.058594 298.179688 726.769531 298.179688 726.769531 298.179688 L 726.769531 554.628906 Z M 633.746094 342.566406 L 712.78125 368.90625 L 712.78125 289.976562 L 633.746094 289.976562 Z M 887.632812 284.191406 L 887.632812 126.035156 L 633.746094 210.664062 L 633.746094 287.179688 L 712.78125 287.179688 L 712.78125 284.191406 Z M 887.632812 284.191406 " fill-opacity="1" fill-rule="evenodd"/>
  </g>
  <defs>
    <clipPath id="b64406570c">
      <path d="M 399.679688 100.425781 L 1040.179688 100.425781 L 1040.179688 561.675781 L 399.679688 561.675781 Z M 399.679688 100.425781 " clip-rule="nonzero"/>
    </clipPath>
  </defs>
</svg>
