<svg xmlns="http://www.w3.org/2000/svg" xmlns:xlink="http://www.w3.org/1999/xlink" width="1920" zoomAndPan="magnify" viewBox="0 0 1440 809.999993" height="1080" preserveAspectRatio="xMidYMid meet" version="1.0"><defs><clipPath id="c60f035fcc"><path d="M 201.871094 32 L 1238.371094 32 L 1238.371094 778 L 201.871094 778 Z M 201.871094 32 " clip-rule="nonzero"/></clipPath></defs><g clip-path="url(#c60f035fcc)"><path fill="#000000" d="M 580.480469 186.40625 L 580.480469 54.585938 L 575.953125 54.585938 L 575.953125 187.910156 L 563.960938 191.925781 L 571.089844 213.398438 L 575.953125 211.757812 L 575.953125 334.019531 L 433.972656 334.019531 L 433.972656 338.546875 L 575.953125 338.546875 L 575.953125 422.09375 L 300.367188 330.242188 L 300.367188 204.144531 L 295.839844 204.144531 L 295.839844 328.726562 L 208.957031 299.765625 L 201.828125 321.226562 L 284.074219 348.648438 L 284.074219 766.625 L 212.578125 766.625 L 212.578125 777.9375 L 1238.113281 777.9375 L 1238.113281 766.625 L 1155.1875 766.625 L 1155.1875 329.191406 L 1013.773438 329.191406 L 1013.773438 65.820312 L 1050.878906 53.476562 L 1043.640625 32.015625 Z M 306.703125 766.625 L 575.953125 766.625 L 575.953125 445.941406 L 306.703125 356.195312 Z M 580.480469 766.625 L 708.320312 766.625 L 708.320312 490.0625 L 580.480469 447.457031 Z M 1132.5625 766.625 L 1132.5625 351.816406 C 1132.5625 351.816406 730.945312 351.816406 730.945312 351.816406 L 730.945312 766.625 Z M 580.480469 423.609375 L 708.320312 466.214844 L 708.320312 338.546875 L 580.480469 338.546875 Z M 991.148438 329.191406 L 991.148438 73.363281 L 580.480469 210.253906 L 580.480469 334.019531 L 708.320312 334.019531 L 708.320312 329.191406 Z M 991.148438 329.191406 " fill-opacity="1" fill-rule="evenodd"/></g></svg>